<svg width="276" height="276" viewBox="0 0 276 276" fill="none" xmlns="http://www.w3.org/2000/svg">
<path d="M165.83 155.686C165.866 155.985 165.866 156.248 165.866 156.512C165.866 161.168 164.023 164.088 161.99 165.86C159.92 167.595 157.18 168.553 154.405 168.553H117.475V143.13H152.168C159.417 143.13 165.566 148.636 165.842 155.686H165.83Z" fill="#FF6600"/>
<path d="M248.506 275.535H114.724C114.76 275.404 114.784 275.272 114.82 275.176C118.325 262.118 129.773 262.118 129.773 262.118H173.007C205.068 262.118 215.655 234.732 214.28 216.622C213.227 202.654 211.564 193.928 197.232 182.545C209.53 171.856 208.801 154.465 208.801 154.465C208.801 111.662 165.854 109.005 165.854 109.005H80.6175C73.7986 109.005 73.7986 115.002 73.7986 115.002C73.7986 115.002 73.1406 225.336 73.1406 254.074C99.0405 230.028 117.463 227.347 117.463 227.347V202.618H156.379C163.389 202.618 169.167 208.124 169.263 214.982V216.095C168.964 222.786 163.234 228.029 156.379 228.029H145.397C88.7882 230.255 77.4712 271.059 76.4305 275.164C76.3946 275.392 76.3706 275.523 76.3706 275.523H26.9038C11.0409 275.523 -1.35272 262.106 0.11872 246.629L21.7597 23.8909C23.0757 10.3416 34.6797 0.0119719 48.5448 0.0119719H58.2468C58.1869 0.335145 58.1869 0.670288 58.1869 0.993462C58.1869 9.91066 65.0656 17.2599 73.8584 18.1456C74.4207 19.6178 75.0428 21.0661 75.7605 22.4785C86.8382 45.4358 110.704 61.3431 138.279 61.3431C165.854 61.3431 190.007 45.2443 201.025 22.0117C201.683 20.6951 202.233 19.3186 202.795 17.9421C210.93 16.434 217.055 9.41991 217.055 0.98149C217.055 0.658316 217.055 0.323174 216.995 0H226.925C234.689 0 241.771 3.27962 246.687 8.52221C246.723 8.58206 246.747 8.61796 246.783 8.65386C250.623 12.7594 253.111 18.0379 253.662 23.867L275.267 246.605C276.774 262.082 264.381 275.499 248.518 275.499L248.506 275.535Z" fill="#FF6600"/>
<path d="M189.504 15.249C189.313 15.644 189.145 16.039 188.942 16.4339C180.054 35.19 160.686 48.2486 138.267 48.2486C115.848 48.2486 96.4683 35.2259 87.5918 16.4699C87.2927 15.8115 87.0056 15.1891 86.7424 14.5308C90.774 11.3829 93.3699 6.49936 93.3699 1.01738C93.3699 0.694205 93.3699 0.359062 93.3101 0.0358887H181.98C181.884 0.359062 181.884 0.694205 181.884 1.01738C181.884 6.91829 184.899 12.1369 189.516 15.249H189.504Z" fill="#FF6600"/>
</svg>
